<mxfile host="app.diagrams.net" modified="2024-04-02T06:48:39.274Z" agent="Mozilla/5.0 (Windows NT 10.0; Win64; x64) AppleWebKit/537.36 (KHTML, like Gecko) Chrome/123.0.0.0 Safari/537.36" etag="cVdr1qhcEetIGLNtv3_T" version="24.2.1" type="device">
  <diagram name="페이지-1" id="9E3zr8mdyGoT8FHf1SxX">
    <mxGraphModel dx="2049" dy="1114" grid="1" gridSize="10" guides="1" tooltips="1" connect="1" arrows="1" fold="1" page="1" pageScale="1" pageWidth="827" pageHeight="1169" math="0" shadow="0">
      <root>
        <mxCell id="0" />
        <mxCell id="1" parent="0" />
        <mxCell id="tb4G6pSZykx9wGuryRMF-1" value="&lt;p&gt;&lt;font face=&quot;Helvetica&quot;&gt;traffic&lt;/font&gt;&lt;/p&gt;&lt;p&gt;&lt;span style=&quot;font-family: Helvetica; background-color: initial;&quot;&gt;(교통편)&lt;/span&gt;&lt;/p&gt;" style="rounded=0;whiteSpace=wrap;html=1;hachureGap=4;fontFamily=Architects Daughter;fontSource=https%3A%2F%2Ffonts.googleapis.com%2Fcss%3Ffamily%3DArchitects%2BDaughter;" vertex="1" parent="1">
          <mxGeometry x="350" y="20" width="80" height="50" as="geometry" />
        </mxCell>
        <mxCell id="tb4G6pSZykx9wGuryRMF-2" value="ttype&lt;div&gt;(종류)&lt;/div&gt;" style="ellipse;whiteSpace=wrap;html=1;" vertex="1" parent="1">
          <mxGeometry x="230" y="100" width="70" height="50" as="geometry" />
        </mxCell>
        <mxCell id="tb4G6pSZykx9wGuryRMF-3" value="no&lt;div&gt;(번호)&lt;/div&gt;" style="ellipse;whiteSpace=wrap;html=1;" vertex="1" parent="1">
          <mxGeometry x="310" y="100" width="70" height="50" as="geometry" />
        </mxCell>
        <mxCell id="tb4G6pSZykx9wGuryRMF-4" value="&lt;div&gt;route&lt;/div&gt;&lt;span style=&quot;background-color: initial;&quot;&gt;(노선도)&lt;/span&gt;" style="ellipse;whiteSpace=wrap;html=1;" vertex="1" parent="1">
          <mxGeometry x="400" y="100" width="70" height="50" as="geometry" />
        </mxCell>
        <mxCell id="tb4G6pSZykx9wGuryRMF-5" value="&lt;div&gt;coment&lt;/div&gt;&lt;span style=&quot;background-color: initial;&quot;&gt;(설명)&lt;/span&gt;" style="ellipse;whiteSpace=wrap;html=1;" vertex="1" parent="1">
          <mxGeometry x="480" y="100" width="70" height="50" as="geometry" />
        </mxCell>
        <mxCell id="tb4G6pSZykx9wGuryRMF-6" value="" style="endArrow=classic;html=1;rounded=0;exitX=0.5;exitY=1;exitDx=0;exitDy=0;entryX=0;entryY=0;entryDx=0;entryDy=0;" edge="1" parent="1" source="tb4G6pSZykx9wGuryRMF-1" target="tb4G6pSZykx9wGuryRMF-4">
          <mxGeometry width="50" height="50" relative="1" as="geometry">
            <mxPoint x="570" y="280" as="sourcePoint" />
            <mxPoint x="620" y="230" as="targetPoint" />
          </mxGeometry>
        </mxCell>
        <mxCell id="tb4G6pSZykx9wGuryRMF-7" value="" style="endArrow=classic;html=1;rounded=0;exitX=0.5;exitY=1;exitDx=0;exitDy=0;entryX=1;entryY=0;entryDx=0;entryDy=0;" edge="1" parent="1" source="tb4G6pSZykx9wGuryRMF-1" target="tb4G6pSZykx9wGuryRMF-3">
          <mxGeometry width="50" height="50" relative="1" as="geometry">
            <mxPoint x="400" y="80" as="sourcePoint" />
            <mxPoint x="420" y="117" as="targetPoint" />
          </mxGeometry>
        </mxCell>
        <mxCell id="tb4G6pSZykx9wGuryRMF-8" value="" style="endArrow=classic;html=1;rounded=0;exitX=0.5;exitY=1;exitDx=0;exitDy=0;entryX=1;entryY=0;entryDx=0;entryDy=0;" edge="1" parent="1" source="tb4G6pSZykx9wGuryRMF-1" target="tb4G6pSZykx9wGuryRMF-2">
          <mxGeometry width="50" height="50" relative="1" as="geometry">
            <mxPoint x="400" y="80" as="sourcePoint" />
            <mxPoint x="380" y="117" as="targetPoint" />
          </mxGeometry>
        </mxCell>
        <mxCell id="tb4G6pSZykx9wGuryRMF-9" value="" style="endArrow=classic;html=1;rounded=0;entryX=0;entryY=0;entryDx=0;entryDy=0;" edge="1" parent="1" target="tb4G6pSZykx9wGuryRMF-5">
          <mxGeometry width="50" height="50" relative="1" as="geometry">
            <mxPoint x="390" y="70" as="sourcePoint" />
            <mxPoint x="300" y="117" as="targetPoint" />
          </mxGeometry>
        </mxCell>
        <mxCell id="tb4G6pSZykx9wGuryRMF-10" value="&lt;p&gt;&lt;font face=&quot;Helvetica&quot;&gt;guide&lt;/font&gt;&lt;/p&gt;&lt;p&gt;&lt;span style=&quot;font-family: Helvetica; background-color: initial;&quot;&gt;(안내사항)&lt;/span&gt;&lt;/p&gt;" style="rounded=0;whiteSpace=wrap;html=1;hachureGap=4;fontFamily=Architects Daughter;fontSource=https%3A%2F%2Ffonts.googleapis.com%2Fcss%3Ffamily%3DArchitects%2BDaughter;" vertex="1" parent="1">
          <mxGeometry x="410" y="220" width="80" height="50" as="geometry" />
        </mxCell>
        <mxCell id="tb4G6pSZykx9wGuryRMF-11" value="&lt;div&gt;&lt;font color=&quot;#fa0000&quot;&gt;&lt;b&gt;pcode&lt;/b&gt;&lt;/font&gt;&lt;/div&gt;&lt;div&gt;&lt;font color=&quot;#fa0000&quot;&gt;&lt;b&gt;(장소 코드)&lt;/b&gt;&lt;/font&gt;&lt;/div&gt;" style="ellipse;whiteSpace=wrap;html=1;" vertex="1" parent="1">
          <mxGeometry x="130" y="310" width="70" height="50" as="geometry" />
        </mxCell>
        <mxCell id="tb4G6pSZykx9wGuryRMF-12" value="&lt;div&gt;pname&lt;/div&gt;&lt;div&gt;(장소이름)&lt;/div&gt;" style="ellipse;whiteSpace=wrap;html=1;" vertex="1" parent="1">
          <mxGeometry x="210" y="310" width="70" height="50" as="geometry" />
        </mxCell>
        <mxCell id="tb4G6pSZykx9wGuryRMF-13" value="&lt;div&gt;ptype&lt;/div&gt;&lt;span style=&quot;background-color: initial;&quot;&gt;(장소종류)&lt;/span&gt;" style="ellipse;whiteSpace=wrap;html=1;" vertex="1" parent="1">
          <mxGeometry x="290" y="310" width="70" height="50" as="geometry" />
        </mxCell>
        <mxCell id="tb4G6pSZykx9wGuryRMF-14" value="&lt;div&gt;paddr&lt;/div&gt;&lt;span style=&quot;background-color: initial;&quot;&gt;(장소주소)&lt;/span&gt;" style="ellipse;whiteSpace=wrap;html=1;" vertex="1" parent="1">
          <mxGeometry x="370" y="310" width="70" height="50" as="geometry" />
        </mxCell>
        <mxCell id="tb4G6pSZykx9wGuryRMF-15" value="&lt;div&gt;ptel&lt;/div&gt;&lt;span style=&quot;background-color: initial;&quot;&gt;(장소 연락처)&lt;/span&gt;" style="ellipse;whiteSpace=wrap;html=1;" vertex="1" parent="1">
          <mxGeometry x="460" y="310" width="70" height="50" as="geometry" />
        </mxCell>
        <mxCell id="tb4G6pSZykx9wGuryRMF-16" value="&lt;div&gt;pgps&lt;/div&gt;&lt;span style=&quot;background-color: initial;&quot;&gt;(장소 GPS)&lt;/span&gt;" style="ellipse;whiteSpace=wrap;html=1;" vertex="1" parent="1">
          <mxGeometry x="540" y="310" width="70" height="50" as="geometry" />
        </mxCell>
        <mxCell id="tb4G6pSZykx9wGuryRMF-17" value="&lt;div&gt;pcoment&lt;/div&gt;&lt;div&gt;(장소 설명)&lt;/div&gt;" style="ellipse;whiteSpace=wrap;html=1;" vertex="1" parent="1">
          <mxGeometry x="620" y="310" width="70" height="50" as="geometry" />
        </mxCell>
        <mxCell id="tb4G6pSZykx9wGuryRMF-18" value="&lt;div&gt;premark&lt;/div&gt;&lt;div&gt;(참고사항)&lt;/div&gt;" style="ellipse;whiteSpace=wrap;html=1;" vertex="1" parent="1">
          <mxGeometry x="700" y="310" width="70" height="50" as="geometry" />
        </mxCell>
        <mxCell id="tb4G6pSZykx9wGuryRMF-19" value="" style="endArrow=classic;html=1;rounded=0;exitX=0.5;exitY=1;exitDx=0;exitDy=0;entryX=0.5;entryY=0;entryDx=0;entryDy=0;" edge="1" parent="1" source="tb4G6pSZykx9wGuryRMF-10" target="tb4G6pSZykx9wGuryRMF-11">
          <mxGeometry width="50" height="50" relative="1" as="geometry">
            <mxPoint x="280" y="280" as="sourcePoint" />
            <mxPoint x="330" y="230" as="targetPoint" />
          </mxGeometry>
        </mxCell>
        <mxCell id="tb4G6pSZykx9wGuryRMF-20" value="" style="endArrow=classic;html=1;rounded=0;exitX=0.5;exitY=1;exitDx=0;exitDy=0;entryX=1;entryY=0;entryDx=0;entryDy=0;" edge="1" parent="1" source="tb4G6pSZykx9wGuryRMF-10" target="tb4G6pSZykx9wGuryRMF-12">
          <mxGeometry width="50" height="50" relative="1" as="geometry">
            <mxPoint x="460" y="290" as="sourcePoint" />
            <mxPoint x="175" y="320" as="targetPoint" />
          </mxGeometry>
        </mxCell>
        <mxCell id="tb4G6pSZykx9wGuryRMF-21" value="" style="endArrow=classic;html=1;rounded=0;exitX=0.5;exitY=1;exitDx=0;exitDy=0;entryX=0;entryY=0;entryDx=0;entryDy=0;" edge="1" parent="1" source="tb4G6pSZykx9wGuryRMF-10" target="tb4G6pSZykx9wGuryRMF-17">
          <mxGeometry width="50" height="50" relative="1" as="geometry">
            <mxPoint x="460" y="290" as="sourcePoint" />
            <mxPoint x="280" y="327" as="targetPoint" />
          </mxGeometry>
        </mxCell>
        <mxCell id="tb4G6pSZykx9wGuryRMF-22" value="" style="endArrow=classic;html=1;rounded=0;exitX=0.5;exitY=1;exitDx=0;exitDy=0;entryX=0.5;entryY=0;entryDx=0;entryDy=0;" edge="1" parent="1" source="tb4G6pSZykx9wGuryRMF-10" target="tb4G6pSZykx9wGuryRMF-18">
          <mxGeometry width="50" height="50" relative="1" as="geometry">
            <mxPoint x="460" y="290" as="sourcePoint" />
            <mxPoint x="640" y="327" as="targetPoint" />
          </mxGeometry>
        </mxCell>
        <mxCell id="tb4G6pSZykx9wGuryRMF-23" value="" style="endArrow=classic;html=1;rounded=0;exitX=0.5;exitY=1;exitDx=0;exitDy=0;entryX=0;entryY=0;entryDx=0;entryDy=0;" edge="1" parent="1" source="tb4G6pSZykx9wGuryRMF-10" target="tb4G6pSZykx9wGuryRMF-16">
          <mxGeometry width="50" height="50" relative="1" as="geometry">
            <mxPoint x="460" y="290" as="sourcePoint" />
            <mxPoint x="745" y="320" as="targetPoint" />
          </mxGeometry>
        </mxCell>
        <mxCell id="tb4G6pSZykx9wGuryRMF-24" value="" style="endArrow=classic;html=1;rounded=0;entryX=1;entryY=0;entryDx=0;entryDy=0;exitX=0.5;exitY=1;exitDx=0;exitDy=0;" edge="1" parent="1" source="tb4G6pSZykx9wGuryRMF-10" target="tb4G6pSZykx9wGuryRMF-13">
          <mxGeometry width="50" height="50" relative="1" as="geometry">
            <mxPoint x="450" y="280" as="sourcePoint" />
            <mxPoint x="560" y="327" as="targetPoint" />
          </mxGeometry>
        </mxCell>
        <mxCell id="tb4G6pSZykx9wGuryRMF-25" value="" style="endArrow=classic;html=1;rounded=0;entryX=1;entryY=0;entryDx=0;entryDy=0;exitX=0.5;exitY=1;exitDx=0;exitDy=0;" edge="1" parent="1" source="tb4G6pSZykx9wGuryRMF-10" target="tb4G6pSZykx9wGuryRMF-14">
          <mxGeometry width="50" height="50" relative="1" as="geometry">
            <mxPoint x="440" y="280" as="sourcePoint" />
            <mxPoint x="360" y="327" as="targetPoint" />
          </mxGeometry>
        </mxCell>
        <mxCell id="tb4G6pSZykx9wGuryRMF-26" value="" style="endArrow=classic;html=1;rounded=0;entryX=0;entryY=0;entryDx=0;entryDy=0;exitX=0.5;exitY=1;exitDx=0;exitDy=0;" edge="1" parent="1" source="tb4G6pSZykx9wGuryRMF-10" target="tb4G6pSZykx9wGuryRMF-15">
          <mxGeometry width="50" height="50" relative="1" as="geometry">
            <mxPoint x="470" y="300" as="sourcePoint" />
            <mxPoint x="440" y="327" as="targetPoint" />
          </mxGeometry>
        </mxCell>
        <mxCell id="tb4G6pSZykx9wGuryRMF-27" value="&lt;p&gt;&lt;span style=&quot;background-color: initial; font-family: Helvetica;&quot;&gt;notice&lt;/span&gt;&lt;/p&gt;&lt;p&gt;&lt;span style=&quot;background-color: initial; font-family: Helvetica;&quot;&gt;(공지사항)&lt;/span&gt;&lt;br&gt;&lt;/p&gt;" style="rounded=0;whiteSpace=wrap;html=1;hachureGap=4;fontFamily=Architects Daughter;fontSource=https%3A%2F%2Ffonts.googleapis.com%2Fcss%3Ffamily%3DArchitects%2BDaughter;" vertex="1" parent="1">
          <mxGeometry x="990" y="230" width="80" height="50" as="geometry" />
        </mxCell>
        <mxCell id="tb4G6pSZykx9wGuryRMF-28" value="&lt;div&gt;&lt;font color=&quot;#fa0000&quot;&gt;&lt;b&gt;no&lt;/b&gt;&lt;/font&gt;&lt;/div&gt;&lt;div&gt;&lt;font color=&quot;#fa0000&quot;&gt;&lt;b&gt;(글 번호)&lt;/b&gt;&lt;/font&gt;&lt;/div&gt;" style="ellipse;whiteSpace=wrap;html=1;" vertex="1" parent="1">
          <mxGeometry x="830" y="310" width="70" height="50" as="geometry" />
        </mxCell>
        <mxCell id="tb4G6pSZykx9wGuryRMF-29" value="title&lt;div&gt;(글 제목)&lt;/div&gt;" style="ellipse;whiteSpace=wrap;html=1;" vertex="1" parent="1">
          <mxGeometry x="910" y="310" width="70" height="50" as="geometry" />
        </mxCell>
        <mxCell id="tb4G6pSZykx9wGuryRMF-30" value="content&lt;div&gt;(글 내용)&lt;/div&gt;" style="ellipse;whiteSpace=wrap;html=1;" vertex="1" parent="1">
          <mxGeometry x="995" y="310" width="70" height="50" as="geometry" />
        </mxCell>
        <mxCell id="tb4G6pSZykx9wGuryRMF-31" value="&lt;div&gt;resdate&lt;/div&gt;(작성일시)" style="ellipse;whiteSpace=wrap;html=1;" vertex="1" parent="1">
          <mxGeometry x="1080" y="310" width="70" height="50" as="geometry" />
        </mxCell>
        <mxCell id="tb4G6pSZykx9wGuryRMF-32" value="visited&lt;div&gt;(읽은 횟수)&lt;/div&gt;" style="ellipse;whiteSpace=wrap;html=1;" vertex="1" parent="1">
          <mxGeometry x="1160" y="310" width="70" height="50" as="geometry" />
        </mxCell>
        <mxCell id="tb4G6pSZykx9wGuryRMF-33" value="" style="endArrow=classic;html=1;rounded=0;exitX=0.5;exitY=1;exitDx=0;exitDy=0;entryX=0.5;entryY=0;entryDx=0;entryDy=0;" edge="1" parent="1" source="tb4G6pSZykx9wGuryRMF-27" target="tb4G6pSZykx9wGuryRMF-28">
          <mxGeometry width="50" height="50" relative="1" as="geometry">
            <mxPoint x="1130" y="270" as="sourcePoint" />
            <mxPoint x="1180" y="220" as="targetPoint" />
          </mxGeometry>
        </mxCell>
        <mxCell id="tb4G6pSZykx9wGuryRMF-34" value="" style="endArrow=classic;html=1;rounded=0;exitX=0.5;exitY=1;exitDx=0;exitDy=0;entryX=0.5;entryY=0;entryDx=0;entryDy=0;" edge="1" parent="1" source="tb4G6pSZykx9wGuryRMF-27" target="tb4G6pSZykx9wGuryRMF-32">
          <mxGeometry width="50" height="50" relative="1" as="geometry">
            <mxPoint x="1040" y="290" as="sourcePoint" />
            <mxPoint x="875" y="320" as="targetPoint" />
          </mxGeometry>
        </mxCell>
        <mxCell id="tb4G6pSZykx9wGuryRMF-35" value="" style="endArrow=classic;html=1;rounded=0;exitX=0.5;exitY=1;exitDx=0;exitDy=0;" edge="1" parent="1" source="tb4G6pSZykx9wGuryRMF-27" target="tb4G6pSZykx9wGuryRMF-31">
          <mxGeometry width="50" height="50" relative="1" as="geometry">
            <mxPoint x="1040" y="290" as="sourcePoint" />
            <mxPoint x="1205" y="320" as="targetPoint" />
          </mxGeometry>
        </mxCell>
        <mxCell id="tb4G6pSZykx9wGuryRMF-36" value="" style="endArrow=classic;html=1;rounded=0;exitX=0.5;exitY=1;exitDx=0;exitDy=0;entryX=1;entryY=0;entryDx=0;entryDy=0;" edge="1" parent="1" source="tb4G6pSZykx9wGuryRMF-27" target="tb4G6pSZykx9wGuryRMF-29">
          <mxGeometry width="50" height="50" relative="1" as="geometry">
            <mxPoint x="1030" y="300" as="sourcePoint" />
            <mxPoint x="1099" y="328" as="targetPoint" />
          </mxGeometry>
        </mxCell>
        <mxCell id="tb4G6pSZykx9wGuryRMF-37" value="" style="endArrow=classic;html=1;rounded=0;exitX=0.5;exitY=1;exitDx=0;exitDy=0;entryX=0.5;entryY=0;entryDx=0;entryDy=0;" edge="1" parent="1" source="tb4G6pSZykx9wGuryRMF-27" target="tb4G6pSZykx9wGuryRMF-30">
          <mxGeometry width="50" height="50" relative="1" as="geometry">
            <mxPoint x="1040" y="290" as="sourcePoint" />
            <mxPoint x="980" y="327" as="targetPoint" />
          </mxGeometry>
        </mxCell>
        <mxCell id="tb4G6pSZykx9wGuryRMF-38" value="&lt;p&gt;&lt;font face=&quot;Helvetica&quot;&gt;qna&lt;/font&gt;&lt;/p&gt;&lt;p&gt;&lt;font face=&quot;Helvetica&quot;&gt;(묻고 답하기)&lt;/font&gt;&lt;/p&gt;" style="rounded=0;whiteSpace=wrap;html=1;hachureGap=4;fontFamily=Architects Daughter;fontSource=https%3A%2F%2Ffonts.googleapis.com%2Fcss%3Ffamily%3DArchitects%2BDaughter;" vertex="1" parent="1">
          <mxGeometry x="990" y="453" width="80" height="50" as="geometry" />
        </mxCell>
        <mxCell id="tb4G6pSZykx9wGuryRMF-39" value="&lt;div&gt;&lt;font color=&quot;#fa0000&quot;&gt;&lt;b&gt;no&lt;/b&gt;&lt;/font&gt;&lt;/div&gt;&lt;div&gt;&lt;font color=&quot;#fa0000&quot;&gt;&lt;b&gt;(글 번호)&lt;/b&gt;&lt;/font&gt;&lt;/div&gt;" style="ellipse;whiteSpace=wrap;html=1;" vertex="1" parent="1">
          <mxGeometry x="710" y="580" width="70" height="50" as="geometry" />
        </mxCell>
        <mxCell id="tb4G6pSZykx9wGuryRMF-40" value="title&lt;div&gt;(글 제목)&lt;/div&gt;" style="ellipse;whiteSpace=wrap;html=1;" vertex="1" parent="1">
          <mxGeometry x="950" y="580" width="70" height="50" as="geometry" />
        </mxCell>
        <mxCell id="tb4G6pSZykx9wGuryRMF-41" value="plevel&lt;div&gt;(글종류)&lt;/div&gt;" style="ellipse;whiteSpace=wrap;html=1;" vertex="1" parent="1">
          <mxGeometry x="790" y="580" width="70" height="50" as="geometry" />
        </mxCell>
        <mxCell id="tb4G6pSZykx9wGuryRMF-42" value="&lt;div&gt;parno&lt;/div&gt;(부모글번호)&lt;div&gt;&lt;/div&gt;" style="ellipse;whiteSpace=wrap;html=1;" vertex="1" parent="1">
          <mxGeometry x="870" y="580" width="70" height="50" as="geometry" />
        </mxCell>
        <mxCell id="tb4G6pSZykx9wGuryRMF-43" value="visited&lt;div&gt;(읽은 횟수)&lt;/div&gt;" style="ellipse;whiteSpace=wrap;html=1;" vertex="1" parent="1">
          <mxGeometry x="1200" y="580" width="70" height="50" as="geometry" />
        </mxCell>
        <mxCell id="tb4G6pSZykx9wGuryRMF-44" value="content&lt;div&gt;(글 내용)&lt;/div&gt;" style="ellipse;whiteSpace=wrap;html=1;" vertex="1" parent="1">
          <mxGeometry x="1040" y="580" width="70" height="50" as="geometry" />
        </mxCell>
        <mxCell id="tb4G6pSZykx9wGuryRMF-45" value="&lt;div&gt;resdate&lt;/div&gt;(작성일시)" style="ellipse;whiteSpace=wrap;html=1;" vertex="1" parent="1">
          <mxGeometry x="1120" y="580" width="70" height="50" as="geometry" />
        </mxCell>
        <mxCell id="tb4G6pSZykx9wGuryRMF-46" value="&lt;font color=&quot;#0781f2&quot;&gt;aid&lt;/font&gt;&lt;div&gt;&lt;font color=&quot;#0781f2&quot;&gt;(작성자 id)&lt;/font&gt;&lt;/div&gt;" style="ellipse;whiteSpace=wrap;html=1;" vertex="1" parent="1">
          <mxGeometry x="1280" y="580" width="70" height="50" as="geometry" />
        </mxCell>
        <mxCell id="tb4G6pSZykx9wGuryRMF-47" value="" style="endArrow=classic;html=1;rounded=0;exitX=0.5;exitY=1;exitDx=0;exitDy=0;entryX=0.5;entryY=0;entryDx=0;entryDy=0;" edge="1" parent="1" source="tb4G6pSZykx9wGuryRMF-38" target="tb4G6pSZykx9wGuryRMF-39">
          <mxGeometry width="50" height="50" relative="1" as="geometry">
            <mxPoint x="1000" y="520" as="sourcePoint" />
            <mxPoint x="1050" y="470" as="targetPoint" />
          </mxGeometry>
        </mxCell>
        <mxCell id="tb4G6pSZykx9wGuryRMF-48" value="" style="endArrow=classic;html=1;rounded=0;exitX=0.5;exitY=1;exitDx=0;exitDy=0;entryX=0.5;entryY=0;entryDx=0;entryDy=0;" edge="1" parent="1" source="tb4G6pSZykx9wGuryRMF-38" target="tb4G6pSZykx9wGuryRMF-46">
          <mxGeometry width="50" height="50" relative="1" as="geometry">
            <mxPoint x="1040" y="520" as="sourcePoint" />
            <mxPoint x="755" y="590" as="targetPoint" />
          </mxGeometry>
        </mxCell>
        <mxCell id="tb4G6pSZykx9wGuryRMF-49" value="" style="endArrow=classic;html=1;rounded=0;exitX=0.5;exitY=1;exitDx=0;exitDy=0;entryX=0.5;entryY=0;entryDx=0;entryDy=0;" edge="1" parent="1" source="tb4G6pSZykx9wGuryRMF-38" target="tb4G6pSZykx9wGuryRMF-43">
          <mxGeometry width="50" height="50" relative="1" as="geometry">
            <mxPoint x="1040" y="520" as="sourcePoint" />
            <mxPoint x="1325" y="590" as="targetPoint" />
          </mxGeometry>
        </mxCell>
        <mxCell id="tb4G6pSZykx9wGuryRMF-50" value="" style="endArrow=classic;html=1;rounded=0;exitX=0.5;exitY=1;exitDx=0;exitDy=0;entryX=0.5;entryY=0;entryDx=0;entryDy=0;" edge="1" parent="1" source="tb4G6pSZykx9wGuryRMF-38" target="tb4G6pSZykx9wGuryRMF-41">
          <mxGeometry width="50" height="50" relative="1" as="geometry">
            <mxPoint x="1040" y="520" as="sourcePoint" />
            <mxPoint x="1245" y="590" as="targetPoint" />
          </mxGeometry>
        </mxCell>
        <mxCell id="tb4G6pSZykx9wGuryRMF-51" value="" style="endArrow=classic;html=1;rounded=0;exitX=0.5;exitY=1;exitDx=0;exitDy=0;entryX=0.5;entryY=0;entryDx=0;entryDy=0;" edge="1" parent="1" source="tb4G6pSZykx9wGuryRMF-38" target="tb4G6pSZykx9wGuryRMF-42">
          <mxGeometry width="50" height="50" relative="1" as="geometry">
            <mxPoint x="1040" y="520" as="sourcePoint" />
            <mxPoint x="835" y="590" as="targetPoint" />
          </mxGeometry>
        </mxCell>
        <mxCell id="tb4G6pSZykx9wGuryRMF-52" value="" style="endArrow=classic;html=1;rounded=0;exitX=0.5;exitY=1;exitDx=0;exitDy=0;entryX=0.5;entryY=0;entryDx=0;entryDy=0;" edge="1" parent="1" source="tb4G6pSZykx9wGuryRMF-38" target="tb4G6pSZykx9wGuryRMF-45">
          <mxGeometry width="50" height="50" relative="1" as="geometry">
            <mxPoint x="1040" y="520" as="sourcePoint" />
            <mxPoint x="915" y="590" as="targetPoint" />
          </mxGeometry>
        </mxCell>
        <mxCell id="tb4G6pSZykx9wGuryRMF-53" value="" style="endArrow=classic;html=1;rounded=0;exitX=0.5;exitY=1;exitDx=0;exitDy=0;entryX=0.5;entryY=0;entryDx=0;entryDy=0;" edge="1" parent="1" source="tb4G6pSZykx9wGuryRMF-38" target="tb4G6pSZykx9wGuryRMF-44">
          <mxGeometry width="50" height="50" relative="1" as="geometry">
            <mxPoint x="1040" y="520" as="sourcePoint" />
            <mxPoint x="1165" y="590" as="targetPoint" />
          </mxGeometry>
        </mxCell>
        <mxCell id="tb4G6pSZykx9wGuryRMF-54" value="" style="endArrow=classic;html=1;rounded=0;entryX=0.5;entryY=0;entryDx=0;entryDy=0;exitX=0.5;exitY=1;exitDx=0;exitDy=0;" edge="1" parent="1" source="tb4G6pSZykx9wGuryRMF-38" target="tb4G6pSZykx9wGuryRMF-40">
          <mxGeometry width="50" height="50" relative="1" as="geometry">
            <mxPoint x="1030" y="530" as="sourcePoint" />
            <mxPoint x="1085" y="590" as="targetPoint" />
          </mxGeometry>
        </mxCell>
        <mxCell id="tb4G6pSZykx9wGuryRMF-55" value="&lt;p&gt;&lt;font face=&quot;Helvetica&quot;&gt;data&lt;/font&gt;&lt;/p&gt;&lt;p&gt;&lt;font face=&quot;Helvetica&quot;&gt;(자료실)&lt;/font&gt;&lt;/p&gt;" style="rounded=0;whiteSpace=wrap;html=1;hachureGap=4;fontFamily=Architects Daughter;fontSource=https%3A%2F%2Ffonts.googleapis.com%2Fcss%3Ffamily%3DArchitects%2BDaughter;" vertex="1" parent="1">
          <mxGeometry x="940" y="10" width="80" height="50" as="geometry" />
        </mxCell>
        <mxCell id="tb4G6pSZykx9wGuryRMF-56" value="&lt;div&gt;&lt;font color=&quot;#fa0000&quot;&gt;&lt;b&gt;no&lt;/b&gt;&lt;/font&gt;&lt;/div&gt;&lt;div&gt;&lt;font color=&quot;#fa0000&quot;&gt;&lt;b&gt;(글 번호)&lt;/b&gt;&lt;/font&gt;&lt;/div&gt;" style="ellipse;whiteSpace=wrap;html=1;" vertex="1" parent="1">
          <mxGeometry x="730" y="100" width="70" height="50" as="geometry" />
        </mxCell>
        <mxCell id="tb4G6pSZykx9wGuryRMF-57" value="title&lt;div&gt;(글 제목)&lt;/div&gt;" style="ellipse;whiteSpace=wrap;html=1;" vertex="1" parent="1">
          <mxGeometry x="810" y="100" width="70" height="50" as="geometry" />
        </mxCell>
        <mxCell id="tb4G6pSZykx9wGuryRMF-58" value="content&lt;div&gt;(글 내용)&lt;/div&gt;" style="ellipse;whiteSpace=wrap;html=1;" vertex="1" parent="1">
          <mxGeometry x="895" y="100" width="70" height="50" as="geometry" />
        </mxCell>
        <mxCell id="tb4G6pSZykx9wGuryRMF-59" value="&lt;div&gt;resdate&lt;/div&gt;(작성일시)" style="ellipse;whiteSpace=wrap;html=1;" vertex="1" parent="1">
          <mxGeometry x="1060" y="100" width="70" height="50" as="geometry" />
        </mxCell>
        <mxCell id="tb4G6pSZykx9wGuryRMF-60" value="visited&lt;div&gt;(읽은 횟수)&lt;/div&gt;" style="ellipse;whiteSpace=wrap;html=1;" vertex="1" parent="1">
          <mxGeometry x="1140" y="100" width="70" height="50" as="geometry" />
        </mxCell>
        <mxCell id="tb4G6pSZykx9wGuryRMF-61" value="datafile&lt;div&gt;(자료 파일)&lt;/div&gt;" style="ellipse;whiteSpace=wrap;html=1;" vertex="1" parent="1">
          <mxGeometry x="970" y="100" width="70" height="50" as="geometry" />
        </mxCell>
        <mxCell id="tb4G6pSZykx9wGuryRMF-62" value="&lt;div&gt;&lt;font color=&quot;#fa0000&quot;&gt;&lt;b&gt;tno&lt;/b&gt;&lt;/font&gt;&lt;/div&gt;&lt;div&gt;&lt;br&gt;&lt;/div&gt;" style="ellipse;whiteSpace=wrap;html=1;" vertex="1" parent="1">
          <mxGeometry x="560" y="100" width="70" height="50" as="geometry" />
        </mxCell>
        <mxCell id="tb4G6pSZykx9wGuryRMF-64" value="&lt;p&gt;&lt;font face=&quot;Helvetica&quot;&gt;member&lt;/font&gt;&lt;/p&gt;" style="rounded=0;whiteSpace=wrap;html=1;hachureGap=4;fontFamily=Architects Daughter;fontSource=https%3A%2F%2Ffonts.googleapis.com%2Fcss%3Ffamily%3DArchitects%2BDaughter;" vertex="1" parent="1">
          <mxGeometry x="290" y="456" width="80" height="50" as="geometry" />
        </mxCell>
        <mxCell id="tb4G6pSZykx9wGuryRMF-65" value="&lt;div&gt;&lt;b style=&quot;color: rgb(250, 0, 0); background-color: initial;&quot;&gt;id&lt;/b&gt;&lt;/div&gt;&lt;div&gt;&lt;b style=&quot;color: rgb(250, 0, 0); background-color: initial;&quot;&gt;(글 번호)&lt;/b&gt;&lt;br&gt;&lt;/div&gt;" style="ellipse;whiteSpace=wrap;html=1;" vertex="1" parent="1">
          <mxGeometry x="130" y="536" width="70" height="50" as="geometry" />
        </mxCell>
        <mxCell id="tb4G6pSZykx9wGuryRMF-66" value="pw&lt;div&gt;(패스워드)&lt;/div&gt;" style="ellipse;whiteSpace=wrap;html=1;" vertex="1" parent="1">
          <mxGeometry x="210" y="536" width="70" height="50" as="geometry" />
        </mxCell>
        <mxCell id="tb4G6pSZykx9wGuryRMF-67" value="name&lt;div&gt;(이름)&lt;br&gt;&lt;/div&gt;" style="ellipse;whiteSpace=wrap;html=1;" vertex="1" parent="1">
          <mxGeometry x="295" y="536" width="70" height="50" as="geometry" />
        </mxCell>
        <mxCell id="tb4G6pSZykx9wGuryRMF-68" value="email(&lt;div&gt;이메일)&lt;div&gt;&lt;/div&gt;&lt;/div&gt;" style="ellipse;whiteSpace=wrap;html=1;" vertex="1" parent="1">
          <mxGeometry x="380" y="536" width="70" height="50" as="geometry" />
        </mxCell>
        <mxCell id="tb4G6pSZykx9wGuryRMF-69" value="tel&lt;div&gt;(&lt;span style=&quot;background-color: initial;&quot;&gt;연락처)&lt;/span&gt;&lt;/div&gt;" style="ellipse;whiteSpace=wrap;html=1;" vertex="1" parent="1">
          <mxGeometry x="460" y="536" width="70" height="50" as="geometry" />
        </mxCell>
        <mxCell id="tb4G6pSZykx9wGuryRMF-70" value="" style="endArrow=classic;html=1;rounded=0;exitX=0.5;exitY=1;exitDx=0;exitDy=0;entryX=0.5;entryY=0;entryDx=0;entryDy=0;" edge="1" parent="1" source="tb4G6pSZykx9wGuryRMF-64" target="tb4G6pSZykx9wGuryRMF-65">
          <mxGeometry width="50" height="50" relative="1" as="geometry">
            <mxPoint x="430" y="496" as="sourcePoint" />
            <mxPoint x="480" y="446" as="targetPoint" />
          </mxGeometry>
        </mxCell>
        <mxCell id="tb4G6pSZykx9wGuryRMF-71" value="" style="endArrow=classic;html=1;rounded=0;exitX=0.5;exitY=1;exitDx=0;exitDy=0;entryX=0.5;entryY=0;entryDx=0;entryDy=0;" edge="1" parent="1" source="tb4G6pSZykx9wGuryRMF-64" target="tb4G6pSZykx9wGuryRMF-69">
          <mxGeometry width="50" height="50" relative="1" as="geometry">
            <mxPoint x="340" y="516" as="sourcePoint" />
            <mxPoint x="175" y="546" as="targetPoint" />
          </mxGeometry>
        </mxCell>
        <mxCell id="tb4G6pSZykx9wGuryRMF-72" value="" style="endArrow=classic;html=1;rounded=0;exitX=0.5;exitY=1;exitDx=0;exitDy=0;" edge="1" parent="1" source="tb4G6pSZykx9wGuryRMF-64" target="tb4G6pSZykx9wGuryRMF-68">
          <mxGeometry width="50" height="50" relative="1" as="geometry">
            <mxPoint x="340" y="516" as="sourcePoint" />
            <mxPoint x="505" y="546" as="targetPoint" />
          </mxGeometry>
        </mxCell>
        <mxCell id="tb4G6pSZykx9wGuryRMF-73" value="" style="endArrow=classic;html=1;rounded=0;exitX=0.5;exitY=1;exitDx=0;exitDy=0;entryX=1;entryY=0;entryDx=0;entryDy=0;" edge="1" parent="1" source="tb4G6pSZykx9wGuryRMF-64" target="tb4G6pSZykx9wGuryRMF-66">
          <mxGeometry width="50" height="50" relative="1" as="geometry">
            <mxPoint x="330" y="526" as="sourcePoint" />
            <mxPoint x="399" y="554" as="targetPoint" />
          </mxGeometry>
        </mxCell>
        <mxCell id="tb4G6pSZykx9wGuryRMF-74" value="" style="endArrow=classic;html=1;rounded=0;exitX=0.5;exitY=1;exitDx=0;exitDy=0;entryX=0.5;entryY=0;entryDx=0;entryDy=0;" edge="1" parent="1" source="tb4G6pSZykx9wGuryRMF-64" target="tb4G6pSZykx9wGuryRMF-67">
          <mxGeometry width="50" height="50" relative="1" as="geometry">
            <mxPoint x="340" y="516" as="sourcePoint" />
            <mxPoint x="280" y="553" as="targetPoint" />
          </mxGeometry>
        </mxCell>
        <mxCell id="tb4G6pSZykx9wGuryRMF-79" value="" style="endArrow=classic;html=1;rounded=0;exitX=0.5;exitY=1;exitDx=0;exitDy=0;entryX=0.5;entryY=0;entryDx=0;entryDy=0;" edge="1" parent="1" source="tb4G6pSZykx9wGuryRMF-55" target="tb4G6pSZykx9wGuryRMF-56">
          <mxGeometry width="50" height="50" relative="1" as="geometry">
            <mxPoint x="850" y="210" as="sourcePoint" />
            <mxPoint x="900" y="160" as="targetPoint" />
          </mxGeometry>
        </mxCell>
        <mxCell id="tb4G6pSZykx9wGuryRMF-80" value="" style="endArrow=classic;html=1;rounded=0;exitX=0.5;exitY=1;exitDx=0;exitDy=0;entryX=0.5;entryY=0;entryDx=0;entryDy=0;" edge="1" parent="1" source="tb4G6pSZykx9wGuryRMF-55" target="tb4G6pSZykx9wGuryRMF-60">
          <mxGeometry width="50" height="50" relative="1" as="geometry">
            <mxPoint x="990" y="70" as="sourcePoint" />
            <mxPoint x="775" y="110" as="targetPoint" />
          </mxGeometry>
        </mxCell>
        <mxCell id="tb4G6pSZykx9wGuryRMF-81" value="" style="endArrow=classic;html=1;rounded=0;entryX=0.5;entryY=0;entryDx=0;entryDy=0;exitX=0.5;exitY=1;exitDx=0;exitDy=0;" edge="1" parent="1" source="tb4G6pSZykx9wGuryRMF-55" target="tb4G6pSZykx9wGuryRMF-59">
          <mxGeometry width="50" height="50" relative="1" as="geometry">
            <mxPoint x="980" y="90" as="sourcePoint" />
            <mxPoint x="1185" y="110" as="targetPoint" />
          </mxGeometry>
        </mxCell>
        <mxCell id="tb4G6pSZykx9wGuryRMF-82" value="" style="endArrow=classic;html=1;rounded=0;entryX=0.5;entryY=0;entryDx=0;entryDy=0;exitX=0.5;exitY=1;exitDx=0;exitDy=0;" edge="1" parent="1" source="tb4G6pSZykx9wGuryRMF-55" target="tb4G6pSZykx9wGuryRMF-57">
          <mxGeometry width="50" height="50" relative="1" as="geometry">
            <mxPoint x="990" y="70" as="sourcePoint" />
            <mxPoint x="1105" y="110" as="targetPoint" />
          </mxGeometry>
        </mxCell>
        <mxCell id="tb4G6pSZykx9wGuryRMF-83" value="" style="endArrow=classic;html=1;rounded=0;entryX=0.5;entryY=0;entryDx=0;entryDy=0;" edge="1" parent="1" target="tb4G6pSZykx9wGuryRMF-58">
          <mxGeometry width="50" height="50" relative="1" as="geometry">
            <mxPoint x="980" y="60" as="sourcePoint" />
            <mxPoint x="855" y="110" as="targetPoint" />
          </mxGeometry>
        </mxCell>
        <mxCell id="tb4G6pSZykx9wGuryRMF-84" value="" style="endArrow=classic;html=1;rounded=0;entryX=0.5;entryY=0;entryDx=0;entryDy=0;exitX=0.5;exitY=1;exitDx=0;exitDy=0;" edge="1" parent="1" source="tb4G6pSZykx9wGuryRMF-55" target="tb4G6pSZykx9wGuryRMF-61">
          <mxGeometry width="50" height="50" relative="1" as="geometry">
            <mxPoint x="980" y="80" as="sourcePoint" />
            <mxPoint x="940" y="110" as="targetPoint" />
          </mxGeometry>
        </mxCell>
        <mxCell id="tb4G6pSZykx9wGuryRMF-85" value="" style="endArrow=classic;html=1;rounded=0;exitX=0.5;exitY=1;exitDx=0;exitDy=0;entryX=0.5;entryY=0;entryDx=0;entryDy=0;" edge="1" parent="1" source="tb4G6pSZykx9wGuryRMF-1" target="tb4G6pSZykx9wGuryRMF-62">
          <mxGeometry width="50" height="50" relative="1" as="geometry">
            <mxPoint x="510" y="350" as="sourcePoint" />
            <mxPoint x="560" y="300" as="targetPoint" />
          </mxGeometry>
        </mxCell>
      </root>
    </mxGraphModel>
  </diagram>
</mxfile>
